<svg width="25" height="23" viewBox="0 0 25 23" fill="none" xmlns="http://www.w3.org/2000/svg">
<path opacity="0.7" d="M15.0153 5.23052C14.5387 5.14697 14.1009 5.43558 14.0101 5.87704C13.9194 6.31849 14.2245 6.7495 14.6882 6.8359C16.0844 7.09412 17.1624 8.11944 17.4356 9.44855V9.4495C17.5134 9.8321 17.8684 10.1103 18.2773 10.1103C18.3322 10.1103 18.387 10.1055 18.4429 10.096C18.9066 10.0077 19.2117 9.57767 19.121 9.13526C18.7131 7.15014 17.1026 5.61691 15.0153 5.23052" fill="white"/>
<path opacity="0.7" d="M14.9528 1.92254C14.7295 1.89216 14.5051 1.95482 14.3266 2.08963C14.1431 2.22634 14.0284 2.42381 14.0035 2.64501C13.9506 3.09216 14.2907 3.49659 14.7614 3.54691C18.0074 3.89058 20.5304 6.28963 20.8954 9.37886C20.9443 9.79279 21.3102 10.1051 21.747 10.1051C21.7799 10.1051 21.8119 10.1032 21.8448 10.0994C22.0731 10.0757 22.2766 9.96842 22.4202 9.79753C22.5628 9.62665 22.6276 9.41399 22.6017 9.19659C22.1469 5.34216 19.0026 2.35071 14.9528 1.92254" fill="white"/>
<path fill-rule="evenodd" clip-rule="evenodd" d="M11.6245 12.339C15.6189 16.1276 16.5251 11.7446 19.0684 14.1558C21.5203 16.4814 22.9295 16.9474 19.823 19.8939C19.4338 20.1906 16.9615 23.76 8.27282 15.519C-0.416938 7.27694 3.34318 4.92891 3.65598 4.55984C6.77006 1.60518 7.2527 2.94997 9.70463 5.27556C12.2479 7.68781 7.63001 8.55035 11.6245 12.339Z" fill="white"/>
</svg>
