<svg width="25" height="25" viewBox="0 0 25 25" fill="none" xmlns="http://www.w3.org/2000/svg">
<path fill-rule="evenodd" clip-rule="evenodd" d="M9.12085 3.55262C11.3086 2.28312 13.9978 2.30531 16.1651 3.61074C18.311 4.94276 19.6153 7.32002 19.6031 9.87729C19.5532 12.4178 18.1547 14.8058 16.4065 16.6519C15.3975 17.7222 14.2688 18.6687 13.0433 19.4719C12.9171 19.5448 12.7789 19.5936 12.6354 19.6158C12.4974 19.61 12.3629 19.5692 12.2442 19.4973C10.3733 18.2904 8.73204 16.7499 7.39924 14.9498C6.284 13.4472 5.6504 11.6319 5.58447 9.75026C5.58303 7.18809 6.93305 4.82211 9.12085 3.55262ZM10.3852 10.8106C10.7532 11.7167 11.6219 12.3077 12.5856 12.3077C13.2169 12.3122 13.8238 12.0597 14.2711 11.6063C14.7183 11.153 14.9687 10.5365 14.9664 9.89422C14.9698 8.91387 14.3919 8.02815 13.5025 7.65061C12.6131 7.27307 11.5877 7.47819 10.905 8.17019C10.2224 8.86219 10.0172 9.90456 10.3852 10.8106Z" fill="white"/>
<ellipse opacity="0.7" cx="12.5941" cy="21.6158" rx="5.00673" ry="1" fill="white"/>
</svg>
