<svg width="25" height="24" viewBox="0 0 25 24" fill="none" xmlns="http://www.w3.org/2000/svg">
<path opacity="0.7" d="M22.6075 15.9587C22.6075 18.6093 20.3645 20.7563 17.5707 20.7658H17.5607H7.63736C4.85362 20.7658 2.58057 18.6283 2.58057 15.9777V15.9682C2.58057 15.9682 2.58657 11.7634 2.59459 9.64868C2.59559 9.25158 3.07623 9.02927 3.40367 9.27628C5.78287 11.0671 10.0376 14.3323 10.0907 14.375C10.8016 14.9156 11.7028 15.2205 12.6241 15.2205C13.5453 15.2205 14.4465 14.9156 15.1575 14.3646C15.2105 14.3313 19.3701 11.164 21.7854 9.34373C22.1138 9.09577 22.5965 9.31808 22.5975 9.71424C22.6075 11.8128 22.6075 15.9587 22.6075 15.9587" fill="white"/>
<path d="M22.0829 6.20536C21.2158 4.65493 19.5095 3.66501 17.631 3.66501H7.63754C5.75902 3.66501 4.05273 4.65493 3.18556 6.20536C2.9913 6.55211 3.08343 6.98437 3.40686 7.22948L10.8418 12.8716C11.3625 13.2706 11.9934 13.4692 12.6242 13.4692C12.6282 13.4692 12.6312 13.4692 12.6343 13.4692C12.6373 13.4692 12.6413 13.4692 12.6443 13.4692C13.2751 13.4692 13.906 13.2706 14.4267 12.8716L21.8616 7.22948C22.1851 6.98437 22.2772 6.55211 22.0829 6.20536" fill="white"/>
</svg>
